<svg width="612" height="792" viewBox="0 0 612 792" fill="none" xmlns="http://www.w3.org/2000/svg">
<rect width="612" height="792" fill="white"/>
<path d="M244.5 613.5C180.5 613.5 130 561 130 499V299.5C130 236 187 185 244.5 185H359C428 185 482 241.5 482 308H388.5C388.5 284.5 362.5 265.5 340.5 265.5H263.5C244.5 265.5 218 285.5 218 308V354.5H346C432 354.5 482 401 482 490.5C482 580 429.5 613.5 359 613.5H244.5Z" stroke="black" stroke-width="4"/>
<path d="M255.5 528C235 528 218 515 218 490.5V444H359C384 444 401 459 401 486C401 513 383.5 528 359 528H255.5Z" stroke="black" stroke-width="4"/>
<circle cx="218" cy="235" r="44" fill="black"/>
<circle cx="388" cy="235" r="44" fill="black"/>
<circle cx="218" cy="399" r="44" fill="black"/>
<circle cx="218" cy="564" r="44" fill="#C1C1C1"/>
<circle cx="388" cy="567" r="44" fill="#C1C1C1"/>
<circle cx="388" cy="404" r="44" fill="#C1C1C1"/>
</svg>
