<?xml version="1.0" encoding="utf-8"?>
<!-- Generator: Adobe Illustrator 24.3.0, SVG Export Plug-In . SVG Version: 6.00 Build 0)  -->
<svg version="1.1" id="Layer_1" xmlns="http://www.w3.org/2000/svg" xmlns:xlink="http://www.w3.org/1999/xlink" x="0px" y="0px"
	 viewBox="0 0 612 792" style="enable-background:new 0 0 612 792;" xml:space="preserve">
<style type="text/css">
	.st0{display:none;fill:#FFFFFF;}
	.st1{fill:none;stroke:#000000;stroke-width:8.5039;}
	.st2{fill:none;stroke:#000000;stroke-width:8.5039;stroke-miterlimit:10;}
</style>
<rect class="st0" width="612" height="792"/>
<path class="st1" d="M244.5,613.5C180.5,613.5,130,561,130,499V299.5C130,236,187,185,244.5,185H359c69,0,123,56.5,123,123h-93.5
	c0-23.5-26-42.5-48-42.5h-77c-19,0-45.5,20-45.5,42.5v46.5h128c86,0,136,46.5,136,136s-52.5,123-123,123H244.5z"/>
<path class="st1" d="M255.5,528c-20.5,0-37.5-13-37.5-37.5V444h141c25,0,42,15,42,42s-17.5,42-42,42H255.5z"/>
<circle cx="218" cy="235" r="44"/>
<circle cx="388" cy="235" r="44"/>
<circle cx="218" cy="399" r="44"/>
<circle class="st2" cx="218" cy="564" r="44"/>
<circle class="st2" cx="388" cy="567" r="44"/>
<circle class="st2" cx="388" cy="404" r="44"/>
</svg>
